<svg width="788" height="409" viewBox="0 0 788 409" fill="none" xmlns="http://www.w3.org/2000/svg">
<path d="M30.338 333.617H23.802L14.832 303.755H21.495L27.262 324.905L33.327 303.755H39.223L45.287 324.905L51.055 303.755H57.718L48.748 333.617H42.212L36.275 313.221L30.338 333.617Z" fill="white"/>
<path d="M69.594 317.807C68.852 317.347 67.928 317.116 66.817 317.116C66.219 317.116 65.643 317.186 65.087 317.325C64.532 317.465 64.02 317.654 63.55 317.89C63.08 318.127 62.646 318.4 62.247 318.706C61.849 319.014 61.492 319.349 61.179 319.711L57.805 315.69C58.288 315.104 58.859 314.559 59.513 314.056C60.168 313.554 60.894 313.121 61.693 312.758C62.49 312.396 63.351 312.116 64.277 311.921C65.202 311.726 66.177 311.628 67.203 311.628C68.712 311.628 70.072 311.823 71.282 312.214C72.492 312.606 73.517 313.164 74.357 313.889C75.197 314.616 75.837 315.502 76.279 316.549C76.721 317.596 76.941 318.776 76.941 320.088V333.616H70.92V330.977C70.406 331.927 69.631 332.688 68.592 333.26C67.551 333.832 66.307 334.118 64.854 334.118C63.8 334.118 62.825 333.957 61.928 333.637C61.031 333.317 60.262 332.877 59.621 332.318C58.98 331.76 58.482 331.083 58.126 330.287C57.77 329.491 57.592 328.633 57.592 327.711C57.592 326.119 58.204 324.786 59.429 323.711C60.653 322.637 62.419 321.862 64.726 321.387L70.705 320.256V320.089C70.705 319.028 70.336 318.267 69.596 317.806L69.594 317.807ZM68.119 329.052C68.675 328.829 69.144 328.514 69.529 328.11C69.914 327.706 70.213 327.23 70.425 326.686C70.639 326.142 70.745 325.549 70.745 324.906V324.278L66.389 325.116C65.562 325.256 64.921 325.507 64.466 325.87C64.011 326.233 63.782 326.722 63.782 327.336C63.782 327.644 63.839 327.922 63.954 328.173C64.067 328.424 64.237 328.641 64.466 328.822C64.695 329.004 64.964 329.143 65.278 329.241C65.59 329.339 65.932 329.387 66.303 329.387C66.957 329.387 67.563 329.276 68.117 329.052H68.119Z" fill="white"/>
<path d="M94.795 333.198C94.254 333.478 93.606 333.701 92.852 333.868C92.096 334.035 91.221 334.119 90.225 334.119C89.085 334.119 88.053 333.952 87.127 333.617C86.201 333.282 85.418 332.8 84.777 332.172C84.136 331.544 83.646 330.748 83.304 329.785C82.962 328.822 82.79 327.768 82.79 326.623V317.158H79.843V312.132H83.005V306.31H89.284V312.132H94.196V317.158H89.284V325.618C89.284 326.596 89.532 327.314 90.03 327.775C90.528 328.235 91.19 328.466 92.016 328.466C92.414 328.466 92.856 328.418 93.34 328.32C93.824 328.222 94.309 328.02 94.793 327.713V333.199L94.795 333.198Z" fill="white"/>
<path d="M111.839 312.383C113.12 312.885 114.216 313.57 115.128 314.435C116.039 315.301 116.744 316.341 117.242 317.556C117.74 318.77 117.99 320.104 117.99 321.556C117.99 322.058 117.947 322.568 117.861 323.085C117.775 323.602 117.69 324.042 117.605 324.404H102.996C103.082 325.102 103.295 325.73 103.637 326.289C103.979 326.848 104.412 327.301 104.94 327.65C105.467 328 106.065 328.265 106.735 328.446C107.403 328.628 108.094 328.718 108.806 328.718C110.03 328.718 111.106 328.495 112.032 328.048C112.957 327.602 113.704 327.085 114.274 326.498L117.691 330.602C116.295 331.858 114.85 332.759 113.356 333.304C111.86 333.848 110.202 334.12 108.379 334.12C106.584 334.12 104.94 333.833 103.445 333.262C101.95 332.69 100.661 331.901 99.579 330.896C98.496 329.891 97.679 328.704 97.123 327.336C96.568 325.968 96.29 324.488 96.29 322.897C96.29 321.278 96.574 319.791 97.144 318.437C97.713 317.083 98.496 315.903 99.494 314.898C100.49 313.893 101.68 313.097 103.06 312.511C104.44 311.925 105.943 311.632 107.566 311.632C109.132 311.632 110.556 311.883 111.838 312.386L111.839 312.383ZM105.773 317.095C105.259 317.277 104.804 317.521 104.406 317.828C104.007 318.136 103.679 318.505 103.424 318.938C103.168 319.371 102.996 319.88 102.911 320.467H111.668V320.425C111.639 319.867 111.518 319.371 111.305 318.938C111.092 318.505 110.792 318.136 110.409 317.828C110.024 317.521 109.583 317.277 109.085 317.095C108.586 316.914 108.052 316.823 107.482 316.823C106.856 316.823 106.285 316.914 105.773 317.095Z" fill="white"/>
<path d="M128.625 315.86C128.91 315.218 129.259 314.631 129.672 314.101C130.084 313.571 130.555 313.124 131.082 312.761C131.607 312.399 132.185 312.119 132.811 311.924C133.437 311.729 134.107 311.631 134.819 311.631C135.075 311.631 135.324 311.645 135.566 311.673C135.808 311.701 136.015 311.743 136.185 311.799V317.872C136.042 317.788 135.843 317.732 135.587 317.705C135.331 317.678 135.046 317.663 134.733 317.663C132.852 317.663 131.379 318.319 130.311 319.631C129.243 320.944 128.709 322.717 128.709 324.95V333.619H122.174V312.134H128.623V315.862L128.625 315.86Z" fill="white"/>
<path d="M149.428 303.756H156.006V315.483H168.479V303.756H175.057V333.618H168.479V321.43H156.006V333.618H149.428V303.756Z" fill="white"/>
<path d="M195.048 312.383C196.329 312.885 197.425 313.57 198.337 314.435C199.248 315.301 199.953 316.341 200.451 317.556C200.949 318.77 201.199 320.104 201.199 321.556C201.199 322.058 201.156 322.568 201.07 323.085C200.984 323.602 200.899 324.042 200.814 324.404H186.205C186.291 325.102 186.504 325.73 186.846 326.289C187.188 326.848 187.621 327.301 188.149 327.65C188.676 328 189.274 328.265 189.944 328.446C190.612 328.628 191.303 328.718 192.015 328.718C193.239 328.718 194.315 328.495 195.241 328.048C196.166 327.602 196.913 327.085 197.483 326.498L200.9 330.602C199.504 331.858 198.059 332.759 196.565 333.304C195.069 333.848 193.411 334.12 191.588 334.12C189.793 334.12 188.149 333.833 186.654 333.262C185.159 332.69 183.87 331.901 182.788 330.896C181.705 329.891 180.888 328.704 180.332 327.336C179.777 325.968 179.499 324.488 179.499 322.897C179.499 321.278 179.783 319.791 180.353 318.437C180.922 317.083 181.705 315.903 182.703 314.898C183.699 313.893 184.889 313.097 186.269 312.511C187.649 311.925 189.152 311.632 190.775 311.632C192.341 311.632 193.765 311.883 195.047 312.386L195.048 312.383ZM188.982 317.095C188.468 317.277 188.013 317.521 187.615 317.828C187.216 318.136 186.888 318.505 186.633 318.938C186.377 319.371 186.205 319.88 186.12 320.467H194.877V320.425C194.848 319.867 194.727 319.371 194.514 318.938C194.301 318.505 194.001 318.136 193.618 317.828C193.233 317.521 192.792 317.277 192.294 317.095C191.795 316.914 191.261 316.823 190.691 316.823C190.065 316.823 189.495 316.914 188.983 317.095H188.982Z" fill="white"/>
<path d="M215.636 317.807C214.895 317.347 213.97 317.116 212.86 317.116C212.262 317.116 211.685 317.186 211.13 317.325C210.575 317.465 210.062 317.654 209.593 317.89C209.122 318.127 208.689 318.4 208.29 318.706C207.891 319.014 207.534 319.349 207.222 319.711L203.847 315.69C204.331 315.104 204.901 314.559 205.556 314.056C206.21 313.554 206.937 313.121 207.735 312.758C208.532 312.396 209.393 312.116 210.319 311.921C211.244 311.726 212.22 311.628 213.246 311.628C214.754 311.628 216.114 311.823 217.324 312.214C218.535 312.606 219.56 313.164 220.4 313.889C221.24 314.616 221.88 315.502 222.322 316.549C222.764 317.596 222.984 318.776 222.984 320.088V333.616H216.962V330.977C216.449 331.927 215.673 332.688 214.634 333.26C213.594 333.832 212.349 334.118 210.897 334.118C209.842 334.118 208.868 333.957 207.971 333.637C207.074 333.316 206.305 332.877 205.664 332.318C205.023 331.76 204.524 331.083 204.168 330.287C203.813 329.491 203.635 328.633 203.635 327.711C203.635 326.119 204.246 324.786 205.471 323.711C206.696 322.637 208.461 321.862 210.768 321.387L216.748 320.256V320.089C216.748 319.028 216.378 318.267 215.638 317.806L215.636 317.807ZM214.162 329.052C214.717 328.829 215.187 328.514 215.571 328.11C215.956 327.705 216.255 327.23 216.468 326.686C216.681 326.142 216.788 325.549 216.788 324.906V324.278L212.431 325.116C211.605 325.256 210.964 325.507 210.509 325.87C210.053 326.233 209.825 326.722 209.825 327.336C209.825 327.644 209.882 327.922 209.996 328.173C210.11 328.424 210.28 328.641 210.509 328.822C210.737 329.004 211.007 329.143 211.321 329.241C211.634 329.339 211.976 329.387 212.346 329.387C213.001 329.387 213.606 329.276 214.161 329.052H214.162Z" fill="white"/>
<path d="M240.838 333.198C240.297 333.478 239.649 333.701 238.895 333.868C238.139 334.035 237.264 334.119 236.268 334.119C235.128 334.119 234.096 333.952 233.17 333.617C232.244 333.282 231.461 332.8 230.82 332.172C230.179 331.544 229.689 330.748 229.347 329.785C229.005 328.822 228.833 327.768 228.833 326.623V317.158H225.886V312.132H229.048V306.31H235.327V312.132H240.239V317.158H235.327V325.618C235.327 326.596 235.575 327.314 236.073 327.775C236.571 328.235 237.233 328.466 238.059 328.466C238.457 328.466 238.899 328.418 239.383 328.32C239.867 328.222 240.352 328.02 240.836 327.713V333.199L240.838 333.198Z" fill="white"/>
<path d="M257.882 312.383C259.163 312.885 260.259 313.57 261.171 314.435C262.082 315.301 262.787 316.341 263.285 317.556C263.783 318.77 264.033 320.104 264.033 321.556C264.033 322.058 263.99 322.568 263.904 323.085C263.818 323.602 263.733 324.042 263.648 324.404H249.039C249.125 325.102 249.338 325.73 249.68 326.289C250.022 326.848 250.455 327.301 250.983 327.65C251.51 328 252.108 328.265 252.778 328.446C253.446 328.628 254.137 328.718 254.849 328.718C256.073 328.718 257.149 328.495 258.075 328.048C259 327.602 259.747 327.085 260.317 326.498L263.734 330.602C262.338 331.858 260.893 332.759 259.399 333.304C257.903 333.848 256.245 334.12 254.422 334.12C252.627 334.12 250.983 333.833 249.488 333.262C247.993 332.69 246.704 331.901 245.622 330.896C244.539 329.891 243.722 328.704 243.166 327.336C242.611 325.968 242.333 324.488 242.333 322.897C242.333 321.278 242.617 319.791 243.187 318.437C243.756 317.083 244.539 315.903 245.537 314.898C246.533 313.893 247.723 313.097 249.103 312.511C250.483 311.925 251.986 311.632 253.609 311.632C255.175 311.632 256.599 311.883 257.881 312.386L257.882 312.383ZM251.816 317.095C251.302 317.277 250.847 317.521 250.449 317.828C250.05 318.136 249.722 318.505 249.467 318.938C249.211 319.371 249.039 319.88 248.954 320.467H257.711V320.425C257.682 319.867 257.561 319.371 257.348 318.938C257.135 318.505 256.835 318.136 256.452 317.828C256.067 317.521 255.626 317.277 255.128 317.095C254.629 316.914 254.095 316.823 253.525 316.823C252.899 316.823 252.329 316.914 251.817 317.095H251.816Z" fill="white"/>
<path d="M274.668 315.86C274.952 315.218 275.301 314.631 275.715 314.101C276.127 313.571 276.597 313.124 277.124 312.761C277.65 312.399 278.227 312.119 278.853 311.924C279.48 311.729 280.149 311.631 280.861 311.631C281.117 311.631 281.367 311.645 281.609 311.673C281.85 311.701 282.057 311.743 282.228 311.799V317.872C282.085 317.788 281.886 317.732 281.63 317.705C281.373 317.678 281.089 317.663 280.776 317.663C278.896 317.663 277.422 318.319 276.355 319.631C275.287 320.944 274.753 322.717 274.753 324.95V333.619H268.217V312.134H274.667V315.862L274.668 315.86Z" fill="white"/>
<path d="M282.826 328.236C283.51 327.58 284.364 327.252 285.389 327.252C286.385 327.252 287.24 327.581 287.952 328.236C288.663 328.892 289.019 329.709 289.019 330.686C289.019 331.663 288.663 332.48 287.952 333.136C287.239 333.791 286.385 334.12 285.389 334.12C284.393 334.12 283.544 333.791 282.847 333.136C282.15 332.48 281.8 331.663 281.8 330.686C281.8 329.709 282.143 328.892 282.826 328.236Z" fill="white"/>
<path d="M316.785 329.827C315.873 330.707 314.863 331.468 313.752 332.11C312.642 332.753 311.432 333.248 310.121 333.597C308.811 333.946 307.444 334.12 306.021 334.12C303.742 334.12 301.642 333.722 299.72 332.927C297.798 332.131 296.132 331.035 294.722 329.639C293.312 328.243 292.216 326.603 291.433 324.718C290.65 322.833 290.258 320.817 290.258 318.666C290.258 316.515 290.65 314.499 291.433 312.614C292.216 310.729 293.305 309.096 294.701 307.714C296.096 306.332 297.762 305.243 299.699 304.447C301.635 303.652 303.771 303.254 306.106 303.254C307.558 303.254 308.925 303.415 310.207 303.735C311.488 304.056 312.678 304.517 313.773 305.117C314.869 305.718 315.859 306.457 316.742 307.337C317.625 308.216 318.38 309.201 319.006 310.29L314.051 314.143C313.682 313.445 313.211 312.803 312.642 312.216C312.073 311.63 311.439 311.127 310.742 310.709C310.044 310.29 309.296 309.969 308.499 309.746C307.702 309.523 306.876 309.411 306.022 309.411C304.682 309.411 303.459 309.648 302.348 310.123C301.237 310.598 300.289 311.247 299.507 312.07C298.723 312.894 298.119 313.871 297.692 315.002C297.265 316.133 297.051 317.355 297.051 318.667C297.051 319.979 297.272 321.201 297.713 322.332C298.154 323.463 298.774 324.447 299.57 325.285C300.367 326.122 301.307 326.779 302.39 327.253C303.472 327.728 304.654 327.965 305.935 327.965C307.701 327.965 309.267 327.547 310.634 326.709C312 325.872 313.167 324.685 314.136 323.149L319.134 326.919C318.478 327.981 317.696 328.95 316.784 329.83L316.785 329.827Z" fill="white"/>
<path d="M337.395 312.488C338.862 313.061 340.115 313.849 341.155 314.854C342.194 315.859 343.006 317.039 343.59 318.393C344.173 319.747 344.466 321.234 344.466 322.853C344.466 324.444 344.173 325.925 343.59 327.292C343.006 328.661 342.187 329.847 341.134 330.852C340.079 331.857 338.841 332.653 337.417 333.239C335.993 333.825 334.427 334.118 332.719 334.118C331.011 334.118 329.444 333.825 328.021 333.239C326.596 332.653 325.357 331.857 324.304 330.852C323.25 329.847 322.431 328.661 321.848 327.292C321.264 325.924 320.972 324.444 320.972 322.853C320.972 321.234 321.257 319.74 321.826 318.372C322.395 317.004 323.207 315.825 324.261 314.833C325.314 313.842 326.56 313.061 327.999 312.488C329.437 311.916 331.01 311.63 332.719 311.63C334.37 311.63 335.929 311.917 337.396 312.488H337.395ZM330.668 317.681C330.041 317.947 329.492 318.324 329.023 318.812C328.552 319.301 328.189 319.887 327.933 320.571C327.677 321.256 327.548 322.016 327.548 322.854C327.548 323.692 327.677 324.453 327.933 325.137C328.189 325.822 328.552 326.414 329.023 326.917C329.492 327.419 330.033 327.804 330.646 328.069C331.257 328.335 331.949 328.467 332.717 328.467C333.457 328.467 334.14 328.335 334.767 328.069C335.394 327.804 335.943 327.42 336.412 326.917C336.883 326.415 337.246 325.822 337.502 325.137C337.758 324.453 337.887 323.692 337.887 322.854C337.887 322.016 337.758 321.256 337.502 320.571C337.246 319.887 336.883 319.301 336.412 318.812C335.943 318.324 335.394 317.947 334.767 317.681C334.14 317.416 333.457 317.283 332.717 317.283C331.977 317.283 331.292 317.416 330.667 317.681H330.668Z" fill="white"/>
<path d="M344.763 246.588C346.585 244.671 346.926 242.925 345.813 240.848L343.776 237.712C342.215 234.854 339.294 234.442 336.724 236.57C322.409 247.129 310.093 252.505 299.658 250.421C288.503 248.047 295.061 235.802 313.384 205.802C315.812 201.64 318.228 197.692 320.634 193.935L374.41 195.861C377.724 196.028 380.531 193.358 380.622 189.95L380.945 177.909C381.037 174.501 378.378 171.692 375.059 171.692L334.613 171.686C348.756 148.948 359.559 131.996 368.762 117.336C370.108 115.141 369.484 113.09 366.605 111.925L353.155 106.652C350.03 105.473 348.018 106.371 346.658 108.817L310.205 171.682L237.949 171.671C237.335 171.39 236.534 171.394 235.532 171.671C217.714 171.668 199.788 171.473 182.05 172.073C206.616 114.888 251.211 49.381 316.061 42.109C317.473 41.951 318.541 40.818 318.578 39.464L318.983 24.917C319.029 23.255 317.517 21.943 315.781 22.123C297.81 23.986 287.442 28.412 271.156 35.377C210.459 61.342 184.346 116.953 153.134 171.072C134.49 171.061 116.076 171.313 97.6631 171.566L139.497 103.597C141.66 99.934 140.344 97.09 137.708 95.938L120.93 88.719C118.294 87.566 115.318 88.16 113.944 90.857L67.1401 171.645L27.2581 171.639L27.2371 172.409C27.1491 175.701 28.1451 183.411 31.3461 183.573L59.6101 184.586C58.9951 185.664 58.3771 186.798 57.7541 188.037L15.0771 264.091C13.1581 267.766 14.2581 270.095 17.1101 271.764L27.0941 277.603C31.1281 280.092 34.6081 279.275 36.2401 276.339L88.1791 187.937C106.824 187.948 125.223 187.946 143.364 188.183L100.959 263.748C98.7821 267.662 99.6091 270.479 102.721 271.91L113.236 277.022C117.053 278.996 119.826 277.634 121.975 274.223L172.229 188.619L209.517 189.955C199.239 200.539 191.43 213.497 188.152 225.921C183.493 243.814 193.42 255.195 209.942 258.116C227.918 261.368 249.424 249.438 257.768 226.957C262.814 214.097 264.535 201.066 260.411 191.778L297.576 193.109C294.007 198.927 290.403 205.176 286.567 211.645C262.802 251.43 272.156 264.292 290.418 266.803C307.96 269.023 330.455 261.432 344.76 246.587L344.763 246.588ZM238.156 218.063C236.523 222.498 234.44 226.682 231.991 230.252C227.058 235.944 220.988 239.155 214.275 237.624C210.158 236.643 206.737 231.918 208.658 223.706C210.18 216.755 214.646 208.76 219.839 201.71C221.653 199.457 223.506 197.342 225.317 195.458L239.274 195.958C239.373 196.206 239.472 196.458 239.568 196.717C240.423 199.032 241.926 207.432 238.155 218.064L238.156 218.063Z" fill="white"/>
<path d="M414.322 298.162C446.902 281.802 449.106 241.534 438.573 203.279C429.509 169.554 427.795 147.658 441.023 132.558C452.046 119.722 470.908 120.477 483.401 137.843C485.115 140.108 488.3 140.611 490.26 138.346L500.549 127.02C501.774 125.51 502.019 123.245 501.039 121.232C492.465 107.138 470.909 99.336 451.067 103.111C416.773 109.655 401.83 143.631 411.384 188.43C421.427 236.249 422.162 258.145 408.934 269.471C393.747 282.306 372.19 278.028 357.737 263.179C354.307 259.656 351.122 259.907 348.673 263.179L335.69 280.293C334.71 281.803 334.71 283.816 335.69 285.075C347.938 299.924 386.396 311.753 414.322 298.163V298.162Z" fill="white"/>
<path d="M495.271 170.703C495.761 167.935 494.536 166.424 491.842 165.921L478.369 163.153C475.184 162.397 473.225 164.159 472.735 166.928L460.977 244.948C460.487 247.465 461.467 248.975 463.426 249.478L475.674 253.253C478.124 254.008 479.839 253.253 481.064 251.491C490.127 239.914 501.396 223.555 510.459 209.964C510.459 223.303 510.704 236.642 510.214 248.219C510.214 250.988 511.194 252.246 513.399 253.001L525.647 257.28C527.851 258.035 529.566 257.28 530.791 255.267C539.609 241.173 571.454 189.075 588.111 163.404C590.806 159.126 590.806 155.854 588.356 154.847L580.762 151.324C578.068 150.065 575.863 150.569 574.393 152.834C558.471 177.75 542.793 208.203 530.79 226.827L532.015 180.267C532.015 177.499 530.3 175.989 527.115 175.737L521.236 175.234C518.786 174.982 516.582 175.989 515.602 178.002C504.089 197.633 493.801 212.482 484.247 225.317L495.27 170.703H495.271Z" fill="white"/>
<path d="M753.877 168.324C744.342 167.55 735.412 171.325 727.895 177.154L732.394 165.448C733.193 163.205 732.277 160.912 730.095 160.095L718.449 155.988C716.022 155.164 714.041 155.863 712.998 158.099C700.158 183.364 688.951 207.764 678.157 232.429C670.778 238.115 662.599 241.754 653.57 240.255C647.225 239.32 645.367 235.742 646.265 229.977C647.948 222.472 652.915 211.534 663.872 196.738C665.405 194.515 664.756 191.476 662.351 189.897L657.063 186.221C654.665 184.391 651.467 184.803 649.43 187.515C643.072 195.644 634.894 207.497 629.797 214.402C612.316 234.552 605.835 238.396 601.68 238.027C598.259 237.678 596.364 235.358 597.242 230.347C598.997 220.326 606.678 208.71 621.986 196.052C637.553 182.898 647.426 180.409 652.1 179.786C655.298 179.373 658.243 179.205 659.049 176.71L660.114 173.719C661.172 170.979 659.789 167.919 656.599 168.08C642.872 168.194 625.308 173.99 607.278 187.578C588.982 201.914 572.084 218.807 568.077 239.088C566.071 249.354 570.97 258.053 582.169 260.637C593.375 262.969 607.77 256.58 623.934 239.666C624.894 249.009 632.817 254.773 642.821 256.316C642.833 256.318 642.844 256.32 642.856 256.322C651.487 257.775 661.29 256.162 669.7 254.257C650.483 296.275 631.221 331.744 587.472 352.308C573.699 358.781 565.079 361.536 549.645 363.807C548.238 364.014 547.21 365.184 547.22 366.539L547.328 381.091C547.34 382.753 548.898 384.011 550.627 383.77C568.515 381.275 579.526 377.876 595.553 370.345C645.657 346.801 672.69 298.508 694.936 250.494C697.163 258.363 702.393 264.05 711.921 265.076C732.202 267.163 763.552 241.867 771.451 205.332C775.976 184.059 770.009 169.79 753.876 168.325L753.877 168.324ZM751.043 197.612C747.379 221.653 726.105 247.164 711.74 244.494C708.496 244.008 707.166 239.72 707.552 233.926C707.671 233.091 707.813 232.239 707.993 231.365C711.971 212.091 732.165 182.702 746.562 184.873C749.412 185.407 751.532 190.409 751.042 197.612H751.043Z" fill="white"/>
<path d="M333.974 54.423L354.261 54.988C355.844 55.032 357.162 53.847 357.204 52.34L357.341 47.421L357.419 44.618C357.463 43.031 358.916 41.815 360.575 41.981C361.548 42.078 362.521 42.183 363.494 42.297C374.585 43.573 385.86 45.837 397.221 49.088C400.17 49.933 403.107 50.847 406.034 51.814C415.166 54.92 424.234 58.55 433.196 62.69C439.607 65.717 445.938 69.034 452.168 72.643L452.297 72.459C453.605 73.622 453.464 75.76 451.837 76.764L443.845 81.698C441.709 83.017 442.216 86.107 444.657 86.651L493.174 92.935C495.61 93.478 497.604 90.957 496.376 88.885L476.764 42.812C475.483 40.651 472.056 41.194 471.476 43.649L468.949 54.351C468.517 56.18 466.341 57.111 464.675 56.169C453.857 50.051 442.829 44.65 431.662 39.975C430.972 39.685 430.282 39.394 429.591 39.111C429.25 38.971 428.909 38.836 428.568 38.698C427.656 38.328 426.744 37.96 425.829 37.601C417.69 34.393 409.485 31.57 401.238 29.147L401.157 29.359C388.674 25.899 376.277 23.519 364.052 22.239C362.944 22.119 361.836 22.01 360.729 21.912C359.225 21.778 358.087 20.555 358.127 19.118C358.145 18.485 357.961 17.79 358.355 17.337C358.474 16.049 358.457 15.341 358.576 14.052C358.387 13.834 358.28 13.612 358.286 13.394L358.288 13.335C358.33 11.828 357.081 10.572 355.497 10.528L335.21 9.96298C333.627 9.91898 332.309 11.104 332.267 12.611L332.182 15.655L332.169 16.124L332.022 21.393L331.465 41.372L331.305 47.11L331.179 51.617C331.137 53.123 332.386 54.38 333.97 54.424L333.974 54.423Z" fill="white"/>
<path d="M535.27 391.733L535.231 386.462L535.083 366.475L535.04 360.735L535.007 356.226C534.996 354.719 533.703 353.507 532.119 353.519L511.825 353.669C510.241 353.681 508.966 354.912 508.977 356.419L509.013 361.34L509.034 364.144C509.046 365.731 507.637 366.998 505.973 366.891C504.998 366.828 504.021 366.757 503.044 366.678C491.915 365.794 480.568 363.929 469.099 361.081C466.122 360.341 463.154 359.531 460.195 358.668C450.959 355.886 441.769 352.578 432.666 348.756C426.152 345.957 419.709 342.866 413.354 339.479L413.232 339.667C411.883 338.551 411.949 336.409 413.54 335.348L421.353 330.135C423.441 328.742 422.826 325.672 420.367 325.214L371.658 320.645C369.204 320.188 367.301 322.778 368.601 324.805L389.825 370.157C391.181 372.271 394.587 371.609 395.08 369.134L397.228 358.35C397.595 356.507 399.737 355.5 401.435 356.382C412.462 362.115 423.674 367.123 434.999 371.402C435.699 371.668 436.398 371.934 437.099 372.193C437.444 372.32 437.79 372.444 438.136 372.57C439.061 372.908 439.985 373.244 440.912 373.57C449.159 376.489 457.459 379.021 465.786 381.151L465.86 380.936C478.457 383.954 490.93 385.896 503.193 386.743C504.304 386.823 505.416 386.893 506.525 386.953C508.033 387.034 509.213 388.216 509.224 389.653C509.229 390.286 509.436 390.975 509.059 391.441C508.986 392.733 509.027 393.44 508.954 394.731C509.151 394.943 509.265 395.16 509.267 395.378V395.437C509.279 396.944 510.572 398.156 512.155 398.144L532.449 397.994C534.033 397.982 535.308 396.751 535.297 395.244L535.274 392.198L535.27 391.729V391.733Z" fill="white"/>
</svg>
