<svg width="40" height="39" viewBox="0 0 40 39" fill="none" xmlns="http://www.w3.org/2000/svg">
<path d="M21.0562 23.7395C20.9051 23.7683 20.7538 23.8075 20.6047 23.8564C19.937 22.587 19.4538 21.2247 19.1678 19.8041C18.8681 18.3163 18.793 16.8067 18.9443 15.3143C19.0985 15.305 19.2509 15.2861 19.3993 15.2579C20.3386 15.0793 21.1512 14.5506 21.6874 13.7691C22.2236 12.9876 22.4192 12.047 22.2382 11.1204C22.0571 10.1939 21.5212 9.39227 20.729 8.86337C19.9369 8.33435 18.983 8.14137 18.0438 8.32007C17.0908 8.50124 16.3311 9.02553 15.6531 9.96975C15.0826 10.7642 14.9435 11.712 14.8091 12.6287C14.7914 12.7487 14.7739 12.8686 14.7553 12.9883C14.3643 15.5091 14.3605 17.9028 14.7441 20.1027C15.1008 22.1498 15.7501 24.1283 16.6736 25.9835C17.5216 27.6873 19.0434 30.7453 21.714 30.7449C21.9381 30.7449 22.1709 30.7233 22.4117 30.6776C23.351 30.499 24.1636 29.9703 24.6998 29.1887C25.236 28.4073 25.4316 27.4666 25.2506 26.5399C24.8768 24.6271 22.9945 23.3712 21.0562 23.7395Z" fill="#FFFEEF"/>
<path d="M19.8877 0.5C9.19722 0.5 0.5 9.02339 0.5 19.5001C0.5 29.9767 9.19733 38.5 19.8877 38.5C30.5781 38.5 39.2755 29.9766 39.2755 19.5001C39.2755 9.0235 30.5782 0.5 19.8877 0.5ZM19.8877 35.7824C10.7263 35.7824 3.27302 28.4782 3.27302 19.5001C3.27302 10.5219 10.7263 3.21756 19.8877 3.21756C29.0491 3.21756 36.5025 10.5219 36.5025 19.5001C36.5025 28.4782 29.0491 35.7824 19.8877 35.7824Z" fill="#FFFEEF"/>
</svg>
